<?xml version="1.0" standalone="no"?>
<!DOCTYPE svg PUBLIC "-//W3C//DTD SVG 20010904//EN"
 "http://www.w3.org/TR/2001/REC-SVG-20010904/DTD/svg10.dtd">
<svg version="1.0" xmlns="http://www.w3.org/2000/svg"
 width="1098.000000pt" height="1098.000000pt" viewBox="0 0 1098.000000 1098.000000"
 preserveAspectRatio="xMidYMid meet">
<metadata>
Created by potrace 1.11, written by Peter Selinger 2001-2013
</metadata>
<g transform="translate(0.000000,1098.000000) scale(0.100000,-0.100000)"
fill="#000000" stroke="none">
<path d="M5483 10949 c-3 -10 -13 -21 -24 -24 -10 -3 -21 -14 -24 -24 -3 -11
-15 -21 -26 -24 -12 -3 -18 -10 -15 -16 4 -5 -3 -12 -14 -16 -11 -3 -20 -12
-20 -19 0 -7 -11 -18 -25 -24 -14 -6 -25 -18 -25 -26 0 -7 -9 -16 -20 -19 -11
-3 -19 -11 -18 -19 2 -7 -3 -12 -10 -10 -8 1 -16 -6 -19 -17 -3 -11 -14 -23
-24 -26 -10 -4 -19 -12 -19 -19 0 -7 -11 -18 -25 -24 -14 -6 -25 -18 -25 -26
0 -7 -9 -16 -20 -19 -11 -3 -19 -11 -18 -19 2 -7 -3 -12 -10 -10 -8 1 -16 -6
-19 -17 -3 -11 -13 -23 -23 -26 -10 -3 -20 -15 -23 -26 -3 -13 -10 -18 -17
-14 -7 4 -14 -1 -17 -14 -3 -11 -13 -23 -24 -26 -10 -3 -21 -14 -24 -24 -3
-11 -15 -21 -26 -24 -12 -3 -18 -10 -15 -16 4 -5 -2 -12 -13 -16 -10 -3 -21
-15 -24 -26 -3 -13 -10 -18 -17 -14 -7 4 -14 -1 -17 -14 -3 -11 -13 -23 -24
-26 -10 -3 -21 -14 -24 -24 -3 -11 -15 -21 -26 -24 -12 -3 -18 -10 -15 -16 4
-5 -3 -12 -14 -16 -11 -3 -20 -12 -20 -19 0 -7 -11 -18 -25 -24 -14 -6 -25
-18 -25 -26 0 -7 -9 -16 -20 -19 -11 -3 -19 -11 -18 -19 2 -7 -3 -12 -10 -10
-8 1 -16 -6 -19 -17 -3 -11 -14 -23 -24 -26 -10 -4 -19 -12 -19 -19 0 -7 -11
-18 -25 -24 -14 -6 -25 -18 -25 -27 0 -8 -7 -15 -15 -15 -8 0 -15 -6 -15 -14
0 -8 -9 -18 -20 -21 -11 -3 -20 -13 -20 -21 0 -8 -7 -14 -15 -14 -9 0 -21 -11
-27 -25 -6 -14 -17 -24 -24 -21 -7 3 -14 -4 -16 -17 -2 -14 -10 -21 -21 -21
-10 1 -17 -5 -17 -16 0 -9 -11 -22 -25 -28 -14 -6 -25 -18 -25 -27 0 -8 -7
-15 -15 -15 -8 0 -15 -6 -15 -14 0 -8 -9 -18 -20 -21 -11 -3 -20 -12 -20 -18
0 -7 -10 -17 -22 -22 -13 -6 -23 -17 -23 -25 -1 -8 -7 -14 -14 -12 -7 1 -15
-6 -18 -17 -3 -11 -13 -23 -23 -26 -10 -3 -20 -15 -23 -26 -3 -13 -10 -18 -17
-14 -7 4 -14 -1 -17 -14 -3 -11 -13 -23 -24 -26 -10 -3 -21 -14 -24 -24 -3
-11 -15 -21 -26 -24 -12 -3 -18 -10 -15 -16 4 -5 -3 -12 -13 -16 -11 -3 -23
-15 -26 -26 -4 -10 -15 -19 -25 -19 -13 0 -17 -5 -14 -14 3 -9 -3 -17 -15 -21
-12 -3 -21 -12 -21 -20 0 -8 -9 -17 -20 -20 -11 -3 -20 -13 -20 -21 0 -8 -7
-14 -15 -14 -9 0 -21 -11 -27 -25 -6 -14 -17 -24 -24 -21 -7 3 -14 -4 -16 -17
-2 -12 -9 -21 -17 -19 -7 1 -15 -6 -18 -16 -2 -11 -16 -25 -29 -31 -13 -6 -24
-17 -24 -26 0 -8 -7 -15 -15 -15 -8 0 -15 -6 -15 -14 0 -8 -9 -18 -20 -21 -11
-3 -20 -12 -20 -18 0 -7 -10 -17 -22 -22 -13 -6 -23 -17 -23 -25 -1 -8 -7 -14
-14 -12 -7 1 -15 -6 -18 -17 -3 -11 -13 -23 -24 -26 -10 -3 -21 -15 -24 -26
-4 -10 -11 -17 -16 -13 -6 3 -13 -3 -16 -15 -3 -11 -13 -23 -24 -26 -10 -3
-21 -14 -24 -24 -3 -11 -15 -21 -26 -24 -12 -3 -18 -10 -15 -16 4 -5 -3 -12
-13 -16 -11 -3 -23 -15 -26 -26 -4 -10 -15 -19 -25 -19 -12 0 -17 -5 -14 -13
3 -8 -6 -18 -21 -25 -14 -6 -24 -17 -23 -24 2 -7 -3 -12 -10 -10 -8 1 -16 -6
-19 -17 -3 -11 -13 -23 -23 -26 -10 -3 -20 -15 -23 -26 -3 -13 -10 -18 -17
-14 -7 4 -14 -1 -17 -14 -3 -11 -13 -23 -24 -26 -10 -3 -21 -14 -24 -24 -3
-11 -15 -21 -26 -24 -12 -3 -18 -10 -15 -16 4 -5 -2 -12 -13 -16 -10 -3 -21
-15 -24 -26 -3 -13 -10 -18 -17 -14 -7 4 -14 -1 -17 -14 -3 -11 -13 -23 -24
-26 -10 -3 -21 -14 -24 -24 -3 -11 -15 -21 -26 -24 -12 -3 -18 -10 -15 -16 4
-5 -3 -12 -14 -16 -11 -3 -20 -12 -20 -19 0 -7 -11 -18 -25 -24 -14 -6 -25
-18 -25 -26 0 -7 -9 -16 -21 -19 -12 -3 -18 -10 -14 -16 3 -6 -4 -15 -17 -20
l-23 -9 0 -1433 c0 -1357 1 -1434 18 -1437 16 -3 18 -8 16 -29 0 -5 10 -11 23
-14 13 -3 22 -12 22 -21 -1 -10 9 -19 22 -22 13 -4 24 -13 24 -21 0 -7 9 -16
20 -20 11 -3 19 -12 17 -18 -1 -7 3 -11 9 -10 6 1 17 -9 24 -22 7 -14 21 -27
32 -31 10 -3 18 -12 18 -20 0 -8 7 -14 15 -14 14 0 16 -5 14 -27 0 -5 10 -11
23 -14 13 -3 22 -11 20 -18 -1 -7 7 -15 18 -18 18 -5 24 -15 21 -35 0 -5 8 -8
20 -8 12 0 23 -8 26 -20 3 -11 12 -20 19 -20 13 0 18 -12 15 -32 0 -5 7 -8 18
-8 11 0 21 -9 24 -21 4 -15 11 -20 21 -16 15 6 21 -9 17 -35 0 -5 8 -8 19 -8
18 0 24 -10 22 -31 -1 -4 10 -10 23 -13 14 -4 25 -13 25 -21 0 -8 7 -15 15
-15 8 0 15 -4 15 -9 0 -12 59 -71 71 -71 8 0 13 -15 10 -32 0 -5 8 -8 18 -8
11 0 22 -9 26 -19 3 -11 15 -23 26 -26 11 -4 18 -9 16 -11 -6 -6 63 -74 75
-74 4 0 8 -7 8 -15 0 -8 7 -15 15 -15 8 0 15 -7 15 -15 0 -9 12 -20 26 -25 14
-6 22 -14 19 -20 -3 -5 6 -15 20 -22 15 -7 24 -17 21 -25 -3 -8 2 -13 15 -13
12 0 23 -8 26 -20 3 -11 12 -20 19 -20 13 0 18 -12 15 -33 0 -4 7 -7 18 -7 11
0 21 -9 24 -21 4 -15 11 -20 21 -16 15 6 21 -9 17 -35 0 -5 8 -8 19 -8 11 0
20 -7 20 -15 0 -9 11 -21 25 -27 14 -6 25 -17 25 -24 0 -7 9 -16 21 -19 11 -4
18 -9 16 -11 -6 -6 52 -64 63 -64 5 0 11 -9 15 -19 3 -10 15 -21 26 -24 11 -3
18 -11 17 -19 -3 -12 78 -19 202 -19 8 0 68 1 134 1 65 1 120 -1 123 -4 3 -3
15 -1 27 4 13 4 29 4 36 0 8 -5 19 -6 25 -2 14 9 37 9 56 0 9 -4 19 -4 23 -1
8 8 145 7 153 -1 3 -2 15 -1 27 4 13 4 29 4 36 0 8 -5 19 -6 25 -2 14 9 37 9
57 0 9 -5 19 -5 21 -1 3 5 31 7 64 5 69 -3 56 -3 188 -3 58 0 112 0 120 0 8 0
62 0 120 0 58 0 113 0 123 0 34 0 387 0 400 0 6 0 59 0 117 0 58 0 112 0 120
0 8 0 44 0 80 0 36 0 72 0 80 0 8 0 62 0 120 0 58 0 111 0 118 0 107 -1 286 5
285 10 -2 20 4 31 17 31 9 0 20 12 25 26 6 14 15 22 21 19 6 -4 13 2 16 14 3
12 12 21 20 21 8 0 17 9 20 20 3 11 12 20 19 20 8 0 19 11 24 25 5 14 15 24
22 23 7 -2 12 3 10 10 -1 7 9 17 23 22 14 5 25 16 25 25 0 8 6 15 13 15 8 0
19 12 25 26 7 14 17 22 23 19 6 -4 13 2 16 14 3 12 12 21 20 21 8 0 17 9 20
20 3 11 12 20 20 20 8 0 17 9 20 20 3 11 11 20 18 20 6 0 17 11 23 25 6 14 15
24 19 23 10 -3 58 45 66 67 4 9 12 13 18 10 6 -4 13 2 16 14 3 12 12 21 20 21
8 0 17 9 20 20 3 11 12 20 19 20 8 0 19 12 24 26 6 14 15 22 21 19 6 -4 13 2
16 14 5 19 15 25 36 22 4 0 7 8 7 19 0 11 6 20 13 20 8 0 19 11 25 25 6 14 15
24 19 23 10 -3 58 45 66 67 4 9 12 13 18 10 6 -4 13 2 16 14 3 12 12 21 20 21
8 0 17 9 20 20 3 11 12 20 19 20 8 0 19 12 24 26 6 14 14 22 20 19 6 -3 15 6
20 20 6 15 15 23 21 20 6 -4 13 2 16 14 3 12 12 21 20 21 8 0 17 9 20 20 3 11
12 20 19 20 8 0 19 11 24 25 5 14 15 24 22 23 7 -2 12 3 10 10 -1 7 9 17 23
22 14 5 25 16 25 25 0 8 6 15 13 15 8 0 19 12 25 26 7 14 17 22 23 19 6 -4 13
2 16 14 3 12 12 21 19 21 8 0 19 12 24 26 6 14 15 22 21 19 6 -4 13 2 16 14 3
11 13 23 23 26 17 5 18 72 18 1436 -1 1385 -1 1430 -19 1440 -11 5 -19 16 -19
24 0 8 -4 15 -9 15 -12 0 -71 56 -71 68 0 5 -9 12 -20 15 -11 3 -20 12 -20 21
0 9 -4 16 -8 16 -12 0 -112 97 -112 108 0 5 -9 12 -20 15 -11 3 -20 12 -20 21
0 9 -5 16 -11 16 -6 0 -24 13 -40 29 -16 16 -29 34 -29 40 0 6 -7 11 -15 11
-9 0 -20 11 -25 25 -5 14 -13 24 -17 23 -5 -1 -23 12 -42 30 -18 18 -29 32
-25 33 5 0 -1 4 -13 9 -13 5 -23 16 -23 25 0 8 -7 15 -15 15 -8 0 -15 5 -15
11 0 5 -5 7 -12 3 -7 -4 -8 -3 -4 4 3 6 -3 16 -14 22 -11 6 -20 17 -20 25 0 8
-5 15 -11 15 -6 0 -24 13 -40 29 -16 16 -29 34 -29 40 0 6 -7 11 -15 11 -8 0
-15 5 -15 11 0 5 -5 7 -12 3 -7 -4 -8 -3 -4 4 3 6 -3 16 -14 22 -11 6 -20 17
-20 25 0 8 -4 15 -9 15 -12 0 -71 56 -71 68 0 5 -9 12 -20 15 -11 3 -20 12
-20 20 0 8 -9 17 -20 20 -11 3 -20 12 -20 21 0 9 -5 16 -11 16 -13 0 -44 30
-32 31 4 0 -2 4 -14 9 -13 5 -23 16 -23 25 0 8 -7 15 -15 15 -8 0 -15 5 -15
11 0 5 -5 7 -12 3 -7 -4 -8 -3 -4 4 3 6 -3 16 -14 22 -11 6 -20 17 -20 25 0 8
-4 15 -9 15 -12 0 -71 56 -71 68 0 5 -9 12 -20 15 -11 3 -20 12 -20 21 0 9 -5
16 -11 16 -13 0 -44 30 -32 31 4 0 -2 4 -14 9 -13 5 -23 16 -23 24 0 7 -9 16
-20 19 -11 3 -20 12 -20 20 0 8 -9 17 -20 20 -11 3 -20 12 -20 21 0 9 -8 16
-20 16 -11 0 -20 4 -20 10 0 12 -138 150 -150 150 -6 0 -10 5 -10 11 0 11 -57
69 -69 69 -3 0 -11 10 -16 23 -6 12 -16 21 -22 20 -7 -2 -15 6 -18 17 -3 10
-15 22 -25 25 -11 3 -19 9 -19 13 3 21 -3 31 -16 26 -13 -6 -20 6 -16 29 0 4
-8 7 -19 7 -18 0 -25 10 -21 33 0 4 -8 7 -19 7 -14 0 -20 7 -20 21 0 11 -4 18
-9 14 -5 -3 -18 6 -29 20 -11 14 -24 25 -30 25 -5 0 -13 11 -16 24 -4 15 -13
23 -23 22 -11 0 -19 7 -21 21 -2 13 -8 20 -16 17 -8 -3 -16 4 -19 15 -3 12
-12 21 -21 21 -9 0 -16 4 -16 10 0 13 -189 200 -202 200 -6 0 -8 7 -4 15 4 10
-1 15 -14 15 -18 0 -25 10 -21 33 0 4 -8 7 -19 7 -11 0 -20 5 -20 10 0 11 -98
110 -109 110 -3 0 -11 10 -16 23 -6 12 -16 21 -22 20 -7 -2 -15 6 -18 17 -3
10 -15 22 -25 25 -11 3 -19 9 -19 13 3 21 -3 31 -16 26 -8 -4 -15 -2 -15 4 0
14 -67 82 -80 82 -5 0 -10 9 -10 20 0 13 -5 18 -15 14 -9 -4 -15 -1 -15 7 0 8
-20 31 -45 53 -25 21 -42 42 -39 47 3 5 -1 9 -8 10 -7 0 -24 2 -37 3 -16 2
-25 -3 -28 -15z m46 -2860 c17 -6 31 -15 31 -19 0 -12 58 -69 64 -62 3 2 10
-7 15 -22 6 -14 17 -26 26 -26 8 0 15 -6 15 -14 0 -8 9 -18 20 -21 11 -3 20
-10 20 -15 0 -11 59 -70 70 -70 5 0 12 -9 15 -20 4 -11 10 -18 15 -15 5 3 11
-3 14 -13 4 -11 18 -24 32 -31 15 -6 24 -14 21 -17 -7 -7 46 -61 56 -56 4 2
11 -8 17 -22 5 -14 16 -26 25 -26 8 0 15 -7 15 -15 0 -8 5 -15 11 -15 6 0 17
-7 25 -15 9 -8 13 -15 10 -15 -2 0 7 -13 22 -28 15 -15 30 -26 35 -24 4 2 11
-8 17 -22 5 -14 17 -26 26 -26 10 0 14 -5 10 -16 -3 -8 -2 -13 2 -10 10 6 37
-15 45 -37 3 -9 12 -16 19 -15 7 2 12 -3 11 -9 -2 -7 2 -13 8 -13 5 0 7 -5 4
-10 -4 -6 -3 -10 2 -9 21 4 32 -3 38 -21 4 -11 11 -18 16 -14 6 3 13 -3 16
-14 2 -11 16 -25 30 -31 14 -7 23 -15 19 -18 -3 -3 3 -13 14 -20 11 -8 17 -19
14 -25 -4 -6 -3 -8 3 -5 11 7 53 -28 53 -43 0 -6 7 -10 15 -10 8 0 15 -6 15
-13 0 -8 12 -19 26 -26 15 -6 24 -14 21 -17 -7 -7 46 -61 56 -56 4 2 11 -8 17
-22 5 -14 16 -26 25 -26 8 0 15 -7 15 -15 0 -8 5 -15 11 -15 6 0 17 -7 25 -15
9 -8 13 -15 10 -15 -2 0 7 -13 22 -28 15 -15 30 -26 35 -24 4 2 11 -8 17 -22
5 -14 16 -26 24 -26 8 0 18 -9 21 -20 4 -11 9 -18 13 -16 4 2 13 -2 20 -10 7
-8 10 -14 6 -14 -4 0 5 -9 19 -20 14 -11 24 -28 22 -38 -2 -9 -4 -23 -4 -29
-1 -7 -8 -13 -17 -13 -9 0 -18 -9 -21 -20 -5 -18 -15 -24 -35 -21 -5 0 -8 -8
-8 -19 0 -14 -7 -20 -21 -20 -11 0 -18 -4 -14 -9 7 -12 -24 -43 -36 -36 -5 4
-9 -3 -9 -14 0 -12 -5 -21 -10 -21 -12 0 -122 -110 -112 -111 4 0 -3 -4 -16
-10 -13 -5 -20 -13 -17 -19 3 -5 2 -10 -3 -10 -12 0 -77 -63 -77 -75 0 -5 -11
-12 -25 -16 -14 -4 -21 -7 -16 -8 6 -1 -10 -21 -35 -46 -24 -24 -50 -51 -57
-60 -7 -8 -17 -13 -23 -10 -5 4 -9 -3 -9 -14 0 -15 -6 -21 -21 -21 -11 0 -18
-4 -14 -9 7 -12 -24 -43 -36 -36 -5 4 -9 -3 -9 -13 0 -11 -9 -22 -20 -25 -11
-3 -20 -12 -20 -21 0 -9 -8 -16 -21 -16 -11 0 -18 -4 -15 -8 3 -5 -6 -19 -19
-30 -14 -12 -25 -26 -25 -32 0 -5 -9 -10 -21 -10 -11 0 -18 -4 -15 -8 3 -5
-14 -26 -37 -47 -23 -22 -42 -44 -42 -49 0 -6 -11 -13 -25 -17 -14 -4 -21 -7
-15 -8 5 -1 -23 -32 -62 -70 -39 -38 -69 -72 -66 -75 4 -3 -1 -6 -9 -6 -9 0
-23 -11 -32 -25 -9 -14 -22 -23 -28 -19 -6 4 -8 3 -4 -4 8 -13 -22 -44 -35
-37 -5 4 -9 -1 -9 -9 0 -8 -9 -20 -20 -26 -11 -6 -19 -16 -17 -22 1 -6 -9 -15
-23 -19 -14 -4 -21 -7 -16 -8 17 -2 -101 -112 -125 -116 -26 -5 -52 12 -42 28
3 5 1 7 -5 4 -5 -4 -22 6 -35 23 -14 16 -30 30 -36 30 -6 0 -11 4 -11 9 0 12
-140 151 -151 151 -5 0 -9 4 -9 9 0 12 -59 71 -71 71 -5 0 -9 4 -9 9 0 11
-103 115 -112 113 -5 -1 -8 2 -8 7 0 11 -260 271 -271 271 -5 0 -9 4 -9 9 0
13 -68 79 -75 73 -3 -3 -5 0 -5 6 0 13 -58 72 -71 72 -5 0 -9 6 -9 14 0 8 -9
17 -19 21 -10 3 -21 15 -24 25 -3 11 -12 20 -21 20 -9 0 -16 4 -16 8 0 12
-220 232 -231 232 -5 0 -9 6 -9 14 0 8 -9 17 -19 21 -10 3 -21 15 -24 25 -3
11 -12 20 -21 20 -9 0 -16 4 -16 10 0 5 -11 20 -25 34 -14 14 -25 33 -25 43 0
10 33 50 73 88 39 38 71 73 69 77 -1 4 2 8 7 8 13 0 236 223 233 233 -1 4 2 7
7 7 13 0 76 62 74 72 -2 4 1 8 6 8 12 0 236 223 233 233 -1 4 2 7 7 7 12 0
157 143 153 153 -1 4 2 7 7 7 13 0 76 62 73 72 -1 4 3 8 9 8 15 0 39 26 32 34
-4 3 -2 6 4 6 14 0 119 102 116 112 -2 4 1 8 6 8 11 0 234 220 223 220 -4 0 0
5 8 10 18 12 11 12 49 -1z"/>
<path d="M1805 3200 l-50 -5 0 -950 c0 -522 4 -956 8 -962 5 -7 5 -13 0 -13
-4 0 -1 -5 7 -10 9 -6 265 -10 672 -10 655 0 657 0 668 21 7 11 9 27 6 35 -3
8 -2 14 2 14 4 0 6 28 4 62 -3 64 -3 78 -1 101 1 6 -1 24 -4 38 -3 14 -1 32 3
39 10 16 -15 70 -33 71 -6 0 -214 1 -460 2 -428 2 -449 3 -462 21 -8 10 -12
22 -10 27 8 12 13 69 6 69 -3 0 -6 11 -6 25 0 14 2 25 5 25 8 0 5 94 -3 106
-3 6 -3 14 0 18 10 9 10 76 1 76 -4 0 -4 10 0 23 5 12 7 33 5 47 -2 14 -3 32
-3 40 0 8 0 31 -1 50 -1 19 -1 40 0 45 6 75 6 95 -2 95 -4 0 -5 5 -1 12 9 14
13 78 5 78 -3 0 -6 11 -6 25 0 14 2 25 5 25 8 0 5 94 -3 106 -3 6 -3 14 0 18
10 9 10 76 1 76 -4 0 -4 10 0 23 5 12 7 33 5 47 -2 14 -3 32 -3 40 0 8 0 31
-1 50 -1 19 -1 40 0 45 6 75 6 95 -2 95 -4 0 -5 5 -1 12 10 15 12 78 3 78 -4
0 -4 14 1 30 5 19 5 28 -1 25 -5 -4 -6 3 -1 17 5 13 7 34 5 48 -2 14 -4 31 -5
38 -1 6 -8 12 -17 13 -81 3 -296 3 -336 -1z"/>
<path d="M3948 2755 c-2 -2 -23 -4 -48 -6 -25 -1 -49 -5 -55 -8 -14 -8 -32
-11 -98 -16 -67 -5 -99 -13 -109 -29 -8 -11 -12 -13 -53 -15 -15 0 -25 -7 -25
-16 0 -8 -4 -16 -10 -16 -20 -3 -25 -4 -37 -12 -7 -5 -13 -5 -13 0 0 4 -7 -3
-16 -15 -8 -12 -20 -20 -25 -17 -5 4 -9 2 -9 -3 0 -6 -11 -20 -25 -33 -13 -13
-25 -30 -25 -37 0 -6 -5 -11 -11 -10 -6 2 -16 -6 -22 -17 -7 -11 -20 -27 -30
-36 -9 -9 -18 -28 -19 -43 -2 -19 -7 -26 -18 -23 -12 3 -17 -5 -18 -32 -1 -20
-10 -43 -21 -51 -10 -9 -18 -22 -19 -30 -6 -63 -12 -85 -28 -97 -10 -7 -14
-13 -10 -13 5 0 4 -6 -2 -13 -7 -8 -7 -18 -2 -27 5 -8 6 -18 3 -23 -8 -13 -10
-278 -2 -283 3 -2 5 -17 4 -34 -1 -16 2 -30 6 -30 12 0 31 -69 26 -96 -2 -14
-2 -23 1 -20 12 13 49 -60 44 -86 -1 -4 8 -10 19 -13 12 -4 18 -13 15 -21 -3
-7 -1 -16 5 -19 5 -4 7 -11 4 -16 -4 -5 1 -9 9 -9 8 0 18 -9 21 -20 3 -11 15
-25 26 -30 10 -6 19 -17 19 -25 0 -8 6 -15 14 -15 7 0 16 -9 19 -21 3 -12 10
-18 16 -15 6 4 18 -5 27 -19 9 -14 22 -25 29 -25 8 0 20 -6 27 -13 7 -8 31
-20 53 -27 22 -7 46 -17 53 -23 12 -10 50 -17 92 -18 8 -1 31 -8 50 -17 43
-19 273 -21 296 -1 8 6 14 8 14 3 0 -5 4 -4 8 2 4 6 34 14 67 17 41 4 63 11
73 24 8 11 22 17 37 15 16 -2 28 4 37 17 7 12 21 21 31 21 10 0 32 13 48 29
16 16 29 27 29 23 0 -4 7 4 16 16 8 12 22 22 30 22 8 0 13 4 9 9 -3 5 6 22 20
37 14 15 25 35 25 44 0 10 9 20 20 23 11 3 20 12 20 21 0 8 9 30 20 48 11 18
20 45 20 60 0 15 7 31 16 36 9 5 17 27 19 58 2 27 5 51 6 54 1 3 1 8 0 12 0 4
6 23 14 42 18 42 20 201 4 243 -16 41 -20 62 -24 117 -2 34 -9 55 -21 65 -12
10 -19 28 -18 49 0 23 -4 32 -16 32 -16 0 -18 5 -22 50 -1 11 -10 23 -20 26
-10 3 -18 12 -18 19 0 8 -10 25 -22 39 -13 14 -34 39 -48 56 -14 17 -50 47
-80 68 -30 20 -61 42 -68 49 -7 7 -16 13 -20 14 -4 0 -18 2 -30 3 -13 2 -27 8
-30 13 -8 12 -50 22 -122 28 -25 2 -47 4 -50 6 -3 1 -8 1 -12 0 -5 0 -8 4 -8
10 0 5 -4 8 -9 5 -4 -3 -22 -1 -39 3 -17 5 -32 8 -34 6z m111 -360 c13 -4 20
-9 17 -13 -4 -3 8 -12 25 -19 18 -7 29 -16 26 -20 -4 -3 3 -11 16 -18 12 -6
21 -17 20 -23 -2 -7 3 -12 11 -12 16 0 29 -27 20 -41 -3 -5 0 -9 6 -9 7 0 10
-7 6 -15 -3 -9 0 -15 8 -15 19 0 24 -18 22 -73 -1 -26 1 -47 4 -47 3 0 6 -49
6 -110 0 -60 -3 -110 -6 -110 -4 0 -5 -25 -3 -55 1 -32 -2 -55 -7 -55 -10 0
-29 -38 -36 -67 -1 -6 -11 -22 -23 -34 -12 -13 -21 -28 -21 -35 0 -6 -11 -15
-25 -18 -13 -3 -33 -15 -43 -26 -20 -22 -16 -21 -170 -22 -101 0 -117 2 -142
21 -16 11 -33 21 -38 21 -6 0 -12 9 -15 20 -3 11 -12 20 -21 20 -9 0 -16 8
-16 18 0 10 -9 25 -20 35 -11 9 -20 27 -20 39 0 13 -7 36 -16 53 -20 38 -26
96 -25 225 2 127 2 130 12 130 12 0 24 41 27 88 1 13 6 21 11 18 9 -6 31 36
31 59 0 8 5 17 12 21 7 5 8 3 3 -7 -8 -12 -6 -12 8 0 9 7 17 20 17 27 0 8 8
14 19 14 10 0 29 9 43 19 13 11 37 21 53 23 47 5 200 1 224 -7z"/>
<path d="M6396 2733 c-6 -7 -30 -8 -163 -12 -26 -1 -50 -8 -61 -18 -9 -10 -31
-19 -47 -21 -17 -2 -35 -10 -42 -18 -6 -8 -20 -16 -32 -17 -12 -1 -21 -4 -21
-8 0 -4 -9 -9 -21 -12 -12 -3 -18 -10 -14 -17 3 -6 3 -10 -2 -9 -21 4 -32 -3
-38 -21 -4 -11 -10 -18 -15 -15 -11 7 -31 -20 -22 -30 4 -5 1 -5 -5 -1 -7 4
-13 2 -13 -3 0 -6 -7 -11 -16 -11 -8 0 -13 -4 -9 -10 3 -5 -5 -16 -19 -25 -14
-10 -23 -22 -19 -31 3 -8 -1 -14 -10 -14 -8 0 -20 -13 -26 -30 -5 -16 -8 -30
-5 -30 3 0 -1 -6 -8 -14 -7 -8 -16 -12 -19 -10 -3 2 -6 -2 -6 -9 -2 -31 -14
-76 -30 -108 -15 -29 -17 -65 -17 -264 1 -230 5 -283 23 -294 9 -6 14 -26 25
-90 1 -7 10 -17 19 -23 9 -5 17 -17 17 -27 0 -9 9 -27 19 -38 11 -12 17 -24
14 -27 -4 -3 -1 -6 6 -6 7 0 9 -4 6 -10 -3 -5 -1 -10 6 -10 6 0 29 -18 51 -41
22 -22 53 -45 69 -51 16 -5 27 -14 24 -18 -3 -5 5 -12 17 -16 13 -4 35 -16 50
-27 14 -11 33 -17 41 -14 8 3 25 -4 38 -16 22 -21 30 -23 99 -28 19 -1 43 -9
53 -17 24 -21 242 -20 284 1 15 8 52 17 80 19 29 2 60 11 70 20 10 9 29 18 43
20 14 1 36 13 49 25 13 12 30 19 37 16 7 -2 15 4 18 14 3 10 16 23 28 28 13 6
23 17 23 25 0 9 8 14 18 12 15 -3 22 8 18 31 -1 6 6 8 27 6 4 0 10 10 13 23 3
14 12 22 23 21 10 0 15 4 12 12 -2 7 4 22 14 33 10 11 24 38 30 60 6 23 15 44
20 47 6 3 10 15 10 26 0 11 -4 18 -9 14 -5 -3 -12 -2 -15 3 -4 6 -343 9 -379
3 -4 0 -15 -17 -24 -36 -9 -19 -23 -35 -30 -35 -8 0 -16 -7 -19 -15 -4 -8 -13
-15 -21 -15 -8 0 -11 -4 -8 -10 5 -9 -32 -16 -59 -11 -4 1 -14 -6 -21 -15 -10
-14 -28 -18 -90 -17 -52 0 -80 5 -85 13 -4 7 -21 15 -38 16 -41 5 -82 21 -82
34 0 5 -7 10 -15 10 -8 0 -15 7 -15 16 0 9 -9 18 -20 21 -11 3 -21 9 -21 14
-1 5 -2 14 -3 19 0 6 -5 14 -11 18 -21 15 -31 49 -34 115 -2 51 0 67 11 67 7
1 229 1 493 1 437 0 524 4 503 24 -3 4 -2 20 2 36 5 17 5 31 -1 35 -6 3 -6 11
-1 17 4 7 7 23 5 37 -1 14 -5 66 -8 115 -7 114 -7 115 -16 109 -5 -2 -14 22
-20 55 -7 33 -16 58 -20 55 -9 -5 -30 56 -23 67 3 5 -2 9 -10 9 -8 0 -18 9
-21 20 -3 11 -15 25 -26 30 -10 6 -19 16 -19 22 0 12 -88 98 -100 98 -5 0 -15
8 -22 18 -7 10 -26 22 -42 26 -17 4 -35 13 -40 21 -6 7 -26 16 -45 19 -19 2
-37 9 -40 14 -9 14 -57 22 -160 27 -50 2 -95 6 -100 9 -4 3 -11 2 -15 -1z
m134 -335 c26 -6 41 -19 34 -30 -4 -7 -2 -8 4 -4 14 8 75 -22 67 -33 -2 -5 5
-11 16 -14 12 -3 18 -10 15 -15 -3 -6 -1 -12 4 -14 6 -2 12 -11 14 -20 1 -9 9
-25 17 -35 9 -11 15 -37 15 -63 l-1 -45 -290 -1 c-159 0 -295 3 -301 8 -15 11
-7 77 14 108 9 14 17 27 18 30 13 42 18 49 25 44 5 -3 13 6 18 19 6 16 21 28
40 32 17 4 31 10 31 15 0 17 52 25 147 23 54 -1 105 -3 113 -5z"/>
<path d="M5526 2723 c-1 -1 -18 -3 -37 -5 -18 -1 -39 -9 -45 -17 -10 -13 -29
-20 -61 -23 -7 -1 -11 -3 -8 -6 6 -6 -21 -32 -35 -32 -6 0 -15 -11 -22 -25 -6
-13 -15 -22 -20 -19 -4 3 -15 -11 -24 -31 -8 -21 -18 -34 -21 -31 -3 3 -11 -2
-18 -11 -22 -29 -32 -5 -28 69 2 40 0 79 -6 87 -7 11 -42 14 -154 15 -170 2
-207 -5 -208 -37 0 -12 0 -324 -1 -694 -1 -635 0 -673 17 -690 16 -16 38 -18
181 -18 143 0 165 2 181 18 17 16 18 48 19 425 1 385 4 449 26 463 5 3 11 18
14 34 7 37 12 45 30 45 8 0 14 7 14 16 0 8 16 22 35 30 20 8 38 20 41 27 3 8
43 13 136 14 96 2 134 6 139 15 12 23 8 378 -5 379 -23 3 -138 4 -140 2z"/>
<path d="M7832 2703 c-24 -13 -50 -23 -58 -23 -8 0 -17 -7 -20 -15 -4 -8 -13
-15 -21 -15 -16 0 -83 -63 -101 -95 -18 -33 -34 -4 -35 66 l-2 64 -180 0 -180
0 -1 -702 c-1 -387 3 -703 8 -703 4 0 8 -7 8 -15 0 -13 26 -15 170 -15 130 0
170 3 170 13 0 7 9 18 20 25 19 11 19 25 20 464 1 249 2 469 4 488 3 47 16 81
26 75 5 -3 12 6 16 20 4 15 14 25 25 26 37 3 102 33 92 43 -4 4 4 3 17 -2 14
-5 37 -6 52 -1 16 4 28 4 28 -2 0 -5 7 -9 16 -9 8 0 22 -7 30 -15 9 -8 26 -15
40 -15 17 0 24 -5 24 -20 0 -11 7 -20 15 -20 8 0 15 -8 16 -17 1 -27 7 -54 13
-60 3 -3 1 -14 -5 -24 -5 -11 -6 -19 -2 -19 7 0 10 -121 3 -145 -1 -5 -1 -14
0 -20 7 -29 4 -111 -5 -117 -7 -5 -6 -8 1 -8 9 0 12 -64 4 -95 -1 -5 -1 -12 0
-15 1 -3 3 -120 4 -260 0 -140 4 -254 9 -252 11 4 36 -22 30 -31 -3 -4 72 -7
166 -7 190 2 192 2 191 72 -1 18 -1 40 0 48 0 8 0 69 -1 135 0 66 0 125 1 130
1 6 2 12 1 15 -6 15 -2 460 3 468 3 6 2 13 -3 17 -7 4 -7 15 -1 30 5 14 7 25
5 25 -3 0 1 10 10 23 12 19 21 46 24 79 2 15 72 78 87 78 8 0 22 7 30 15 15
14 52 19 119 15 17 0 38 -10 47 -21 9 -11 19 -20 22 -19 27 2 38 -2 43 -17 3
-10 16 -31 27 -48 21 -29 21 -40 22 -519 l1 -489 22 -19 c20 -16 42 -18 180
-18 l158 0 0 628 c0 628 0 629 -21 638 -12 5 -20 17 -18 27 2 10 -3 17 -12 17
-9 0 -22 12 -30 28 -8 15 -15 23 -16 18 0 -5 -9 3 -21 18 -11 14 -25 23 -30
20 -6 -3 -13 3 -16 15 -3 11 -9 18 -14 15 -5 -3 -9 -1 -9 4 0 6 -8 8 -19 5
-10 -2 -26 4 -36 13 -24 24 -30 25 -180 24 -175 -1 -175 -1 -175 -23 0 -10 -3
-16 -8 -13 -14 8 -77 -10 -74 -22 1 -7 -1 -12 -5 -13 -33 -3 -49 -13 -83 -49
-22 -24 -40 -49 -40 -56 0 -8 -3 -13 -7 -12 -5 0 -16 -2 -26 -7 -21 -9 -48 11
-41 30 3 8 -6 24 -20 36 -14 13 -26 29 -26 36 0 8 -4 11 -10 8 -5 -3 -10 -1
-10 5 0 6 -4 9 -9 5 -5 -3 -12 4 -16 15 -6 18 -23 25 -49 21 -5 -1 -17 6 -28
16 -25 23 -32 24 -183 26 -118 2 -134 0 -173 -20z"/>
<path d="M3043 716 c-4 -6 -9 -18 -11 -26 -3 -13 -5 -641 -3 -677 1 -7 17 -11
44 -10 l42 2 0 77 c0 43 3 78 7 78 4 0 5 6 2 14 -9 23 -10 146 -1 146 5 0 5 5
2 10 -6 10 -10 143 -5 165 1 6 1 12 0 15 -6 16 -4 70 3 70 4 0 4 7 -1 16 -5 9
-6 32 -2 50 4 18 5 36 1 39 -3 4 -6 12 -6 18 0 16 -64 27 -72 13z"/>
<path d="M3873 722 c-18 -2 -33 -9 -34 -15 -1 -15 -1 -678 0 -694 1 -8 19 -11
54 -10 l52 2 3 110 c1 60 7 114 12 119 5 5 67 8 139 8 72 0 131 4 131 9 0 5 6
9 14 9 7 0 19 6 26 14 6 8 17 13 25 10 7 -3 16 3 19 14 4 11 16 22 26 25 12 3
20 14 20 26 0 12 6 21 14 21 19 0 23 21 22 123 -1 76 -4 91 -21 103 -11 8 -19
21 -18 27 2 7 -7 17 -20 23 -12 5 -21 15 -19 22 1 7 -4 13 -10 13 -29 3 -34 5
-60 23 -24 15 -50 18 -185 20 -87 0 -173 0 -190 -2z m337 -117 c39 -3 59 -18
65 -47 4 -18 10 -37 14 -43 9 -15 8 -75 -1 -75 -4 0 -8 -9 -8 -20 0 -11 -5
-20 -11 -20 -5 0 -8 -4 -4 -9 7 -13 -32 -34 -46 -25 -6 3 -13 -3 -16 -14 -6
-24 -31 -29 -156 -28 l-92 1 -3 149 c-2 102 1 152 9 156 6 4 51 6 99 5 58 -1
87 2 83 9 -4 5 9 -1 28 -15 19 -13 36 -24 39 -24z"/>
<path d="M5190 722 c-14 -2 -34 -12 -45 -22 -11 -10 -30 -21 -42 -24 -12 -4
-24 -18 -28 -33 -3 -15 -13 -32 -22 -38 -11 -8 -16 -31 -17 -82 0 -39 2 -70 5
-68 3 2 14 -10 24 -28 27 -45 67 -78 82 -66 8 7 13 4 18 -10 3 -12 9 -22 13
-22 16 -3 49 -7 79 -10 18 -2 35 -9 37 -15 3 -7 28 -15 57 -19 68 -10 117 -52
122 -108 3 -27 0 -40 -10 -44 -8 -3 -19 -17 -24 -30 -6 -15 -15 -23 -23 -20
-8 3 -17 3 -20 -1 -4 -3 -12 -7 -19 -8 -39 -8 -58 -14 -67 -19 -5 -3 -20 0
-32 7 -13 7 -27 11 -32 10 -4 -2 -13 1 -20 5 -6 5 -24 8 -40 7 -20 -1 -30 4
-33 17 -3 10 -9 17 -13 14 -4 -2 -16 4 -26 14 -35 32 -63 33 -79 1 -19 -37 -4
-74 36 -90 16 -7 26 -16 23 -21 -7 -12 -12 -12 204 -14 157 -2 192 1 192 12 0
7 6 16 14 19 8 3 16 14 19 25 3 10 12 19 21 19 13 0 17 10 17 38 0 20 0 53 1
72 1 51 -6 75 -25 94 -9 10 -15 21 -12 26 3 5 -8 11 -24 15 -20 4 -28 11 -24
21 3 10 -3 14 -21 15 -14 1 -30 3 -36 4 -5 1 -15 3 -21 4 -5 0 -8 5 -5 10 7
11 -37 22 -101 26 -27 2 -49 9 -56 20 -7 9 -17 16 -22 15 -6 -2 -13 -1 -17 0
-5 1 -14 3 -20 4 -7 1 -12 7 -10 14 1 7 -4 15 -11 18 -12 4 -13 44 -5 112 1 7
12 15 25 18 12 4 20 10 17 15 -9 15 20 21 104 22 73 2 112 -9 95 -27 -4 -3 3
-6 14 -6 11 0 37 -11 57 -25 39 -26 47 -30 44 -17 -3 16 15 42 30 42 12 0 11
5 -7 24 -13 14 -20 29 -16 35 3 6 0 11 -7 12 -31 2 -49 8 -64 23 -8 9 -23 16
-32 17 -60 3 -201 4 -222 1z"/>
<path d="M6260 720 l-24 -6 -1 -259 c0 -253 5 -304 33 -333 7 -8 10 -17 7 -22
-3 -5 4 -11 15 -15 11 -3 20 -13 20 -21 0 -8 12 -19 26 -24 14 -6 22 -14 19
-20 -3 -5 4 -11 17 -14 43 -9 358 -3 358 6 0 13 26 38 40 38 6 0 18 17 27 38
8 20 20 40 26 44 7 4 12 20 13 35 1 15 5 48 10 73 12 72 11 457 -2 470 -12 12
-70 17 -80 8 -3 -3 -6 -121 -7 -261 -2 -245 -3 -256 -23 -274 -11 -10 -19 -24
-16 -31 4 -14 -44 -64 -68 -70 -58 -13 -123 -16 -155 -9 -11 3 -30 6 -42 6
-13 1 -32 10 -43 21 -11 11 -24 20 -29 20 -8 0 -19 30 -28 75 -2 11 -8 24 -13
29 -6 6 -10 23 -10 39 0 19 -4 26 -12 21 -7 -4 -8 -3 -4 5 12 19 14 61 4 61
-5 0 -6 5 -2 11 9 16 11 88 2 82 -5 -2 -5 6 0 19 9 29 9 89 -1 106 -5 6 -5 12
0 12 4 0 8 11 8 25 0 14 -2 25 -5 25 -3 0 -5 11 -5 25 0 14 3 25 7 25 3 0 4 9
1 19 -6 22 -28 30 -63 21z"/>
<path d="M7580 720 l-24 -6 0 -354 0 -355 44 0 45 0 1 255 c1 213 3 255 15
255 8 0 13 -5 12 -12 -2 -6 6 -14 16 -18 16 -5 26 -21 35 -55 1 -6 22 -31 54
-66 13 -13 20 -29 17 -34 -3 -6 -1 -10 6 -10 7 0 9 -3 6 -7 -4 -3 2 -12 13
-20 11 -8 20 -20 20 -26 0 -7 9 -20 20 -30 12 -10 19 -21 16 -26 -3 -5 11 -7
32 -6 50 3 48 2 49 27 1 11 8 25 15 29 7 5 9 9 3 9 -5 0 -2 5 8 11 9 5 17 16
17 24 0 7 8 16 18 19 10 3 18 16 19 28 1 13 9 28 17 34 8 6 20 23 26 38 5 15
14 24 20 21 5 -3 12 6 16 20 3 14 15 30 25 36 16 8 19 6 19 -13 -1 -13 1 -34
3 -48 2 -14 0 -34 -4 -45 -3 -11 -3 -29 1 -40 4 -11 3 -25 -2 -32 -5 -6 -5
-14 0 -17 5 -3 6 -27 2 -54 -3 -27 -3 -58 1 -68 3 -11 2 -25 -3 -31 -6 -7 -7
-13 -2 -13 10 0 10 -73 0 -89 -4 -5 -2 -12 3 -16 6 -3 8 -12 5 -20 -5 -11 5
-13 48 -11 29 2 55 4 58 5 3 0 4 148 3 329 -1 400 -1 384 -12 377 -5 -3 -12
-2 -14 2 -3 5 -25 7 -50 5 -38 -3 -44 -7 -40 -23 4 -14 0 -19 -16 -19 -12 0
-20 -4 -17 -9 3 -5 -7 -28 -23 -52 -16 -24 -27 -47 -25 -51 3 -4 -2 -8 -10 -8
-13 0 -44 -39 -37 -48 2 -3 -29 -48 -56 -79 -13 -14 -23 -34 -23 -43 0 -10
-10 -20 -22 -24 -36 -9 -48 -7 -48 9 0 7 -6 18 -13 22 -7 4 -21 25 -31 46 -9
20 -21 37 -26 37 -6 0 -10 9 -10 19 0 11 -9 23 -20 26 -11 4 -18 11 -15 16 4
5 1 9 -5 9 -6 0 -9 4 -5 10 3 5 -5 20 -17 32 -13 13 -22 28 -20 35 1 6 -7 14
-18 18 -11 4 -18 10 -15 15 3 5 1 11 -5 15 -5 3 -10 16 -10 27 0 12 -3 19 -6
16 -3 -4 -18 -3 -32 1 -15 4 -38 5 -52 1z"/>
</g>
</svg>
