<?xml version="1.0" encoding="UTF-8"?>
<svg enable-background="new 0 0 749 1099" version="1.1" viewBox="0 0 749 1099" xml:space="preserve" xmlns="http://www.w3.org/2000/svg">
<style type="text/css">
	.st0{fill:#12164A;}
	.st1{fill:#1E2273;}
	.st2{fill:#443B9A;}
	.st3{fill:#707173;}
</style>
		<path class="st0" d="m123 597.2c-0.6-1.1-1.7-2-2.4-2-0.8 0-1.6-0.9-1.9-2s-1.2-2-2-2-1.7-0.9-2-2-1.2-2-2-2-1.7-0.9-2-2-1.2-2-2-2-1.7-0.9-2-2-1.2-2-2-2-1.7-0.9-2-2-1.2-2-2.1-2-1.6-0.6-1.6-1.4c0-0.7-0.9-2-2.1-2.7-1.6-1.1-1.9-2-1.4-4.1 0.4-1.5 1.6-3 2.6-3.3 1-0.4 1.9-1.3 1.9-2.1s0.7-1.4 1.5-1.4 1.5-0.4 1.5-0.9c0-1.2 6.9-8.1 8.1-8.1 0.5 0 0.9-0.7 0.9-1.5s0.6-1.5 1.4-1.5 1.7-0.9 2.1-1.9c0.3-1.1 1.5-2.3 2.6-2.6 1-0.4 1.9-1 1.9-1.5 0-1.1 18-19 19.1-19 0.5 0 0.9-0.7 0.9-1.5s0.7-1.5 1.5-1.5 1.5-0.4 1.5-0.9c0-1.1 23-24.1 24.1-24.1 0.5 0 0.9-0.7 0.9-1.5s0.7-1.5 1.5-1.5 1.5-0.4 1.5-0.9c0-1.1 19-20.1 20.1-20.1 0.5 0 0.9-0.4 0.9-0.9 0-1.2 14-15.1 15.1-15.1 0.5 0 0.9-0.7 0.9-1.5s0.7-1.5 1.5-1.5 1.5-0.4 1.5-0.9c0-1.1 5.8-7.1 6.9-7.1 0.5 0 1.3-0.9 1.6-2s1.3-2 2.2-2c0.8 0 1.7-0.9 2-2 0.6-2.2 1.8-2.6 2.8-0.9 0.4 0.6-0.2 2.1-1.4 3.3s-2.1 3-2.1 3.9-0.9 2.1-2 2.7-2 2-2 3c0 1.1-0.9 2.8-2 3.7-1.1 1-2 2.5-2 3.4s-0.9 1.9-2 2.2c-1.2 0.3-2 1.4-2 2.6s-0.9 3-2 4.1-2 2.5-2 3c0 0.6-0.9 1.9-2 3s-2 2.9-2 4.1-0.8 2.3-2 2.6c-1.1 0.3-2 1.3-2 2.3 0 0.9-0.9 2.9-2 4.3s-2 3.2-2 4-0.9 1.7-2 2c-1.2 0.3-2 1.4-2 2.6s-0.9 3-2 4.1-2 2.5-2 3c0 0.6-0.9 1.9-2 3s-2 2.9-2 4.1-0.8 2.3-2 2.6c-1.1 0.3-2 1.3-2 2.3 0 0.9-0.9 2.9-2 4.3s-2 3.2-2 4-0.9 1.7-2 2c-1.2 0.3-2 1.4-2 2.6s-0.9 3-2 4.1-2 2.5-2 3c0 0.6-0.9 1.9-2 3s-2 2.9-2 4.1-0.8 2.3-2 2.6c-1.1 0.3-2 1.3-2 2.3 0 0.9-0.9 2.9-2 4.3s-2 3.2-2 4-0.9 1.7-2 2c-1.2 0.3-2 1.4-2 2.6s-0.9 3-2 4.1-2 2.5-2 3c0 0.6-0.9 1.9-2 3s-2 2.9-2 4.1-0.8 2.3-2 2.6c-1.1 0.3-2 1.3-2 2.3 0 0.9-0.9 2.9-2 4.3s-2 3.2-2 4-0.9 1.7-2 2c-1.2 0.3-2 1.4-2 2.6s-0.9 3-2 4.1-2 2.7-2 3.5c0 2.2-2.7 1.8-4-0.5z"/>
		<path class="st0" d="m407.3 315.7c-3.2-1.7-27.9-26.7-28.7-29-0.5-1.7 10.7-13.3 64-66.5 35.5-35.5 65.2-65.1 66-65.8 1.2-1.1 1.4-0.9 1.4 1.3 0 1.4-0.7 2.8-1.5 3.1-0.8 0.4-1.5 1.5-1.5 2.5s-0.6 1.9-1.4 1.9-2 1.6-2.6 3.6c-0.7 1.9-1.8 3.8-2.6 4.1s-1.4 1.1-1.4 1.9-0.9 2.3-2 3.4-2 2.9-2 4.1-0.8 2.3-2 2.6c-1.1 0.3-2 1.3-2 2.3 0 0.9-0.9 2.9-2 4.3s-2 3.2-2 4-0.9 1.7-2 2c-1.2 0.3-2 1.4-2 2.6s-0.9 3-2 4.1-2 2.5-2 3c0 0.6-0.9 1.9-2 3s-2 2.9-2 4.1-0.8 2.3-2 2.6c-1.1 0.3-2 1.3-2 2.3 0 0.9-0.9 2.9-2 4.3s-2 3.2-2 4-0.9 1.7-2 2c-1.2 0.3-2 1.4-2 2.6s-0.9 3-2 4.1-2 2.5-2 3c0 0.6-0.9 1.9-2 3s-2 2.9-2 4.1-0.8 2.3-2 2.6c-1.1 0.3-2 1.3-2 2.3 0 0.9-0.9 2.9-2 4.3s-2 3.2-2 4-0.9 1.7-2 2c-1.2 0.3-2 1.4-2 2.6s-0.9 2.9-2 3.8c-1.1 1-2 2.3-2 3s-0.9 2.2-2 3.3-2 2.9-2 4.1-0.8 2.3-2 2.6c-1.1 0.3-2 1.3-2 2.3 0 0.9-0.9 2.9-2 4.3s-2 3-2 3.6-0.9 1.5-1.9 2.1c-1.1 0.5-2.2 2.4-2.6 4.1s-1.3 3.3-2.1 3.6-1.4 1.3-1.4 2.3-0.6 2-1.4 2.3-1.9 2.2-2.6 4.1c-0.6 2-1.8 3.6-2.6 3.6s-1.4 0.8-1.4 1.8c0 3-1.3 3.9-3.7 2.7z"/>
			<path class="st1" d="m231.3 705.3c-0.3-1.1-1.2-2.1-2-2.1s-1.7-0.9-2-2-1.2-2-2-2-1.7-0.9-2-1.9c-0.3-1.1-1.3-2.1-2.4-2.4-1-0.3-1.9-1.2-1.9-2.1s-0.7-1.6-1.6-1.6-1.8-0.9-2.1-1.9c-0.3-1.1-1.3-2.1-2.4-2.4-1-0.3-1.9-1.2-1.9-2s-0.9-1.7-2-2-2-1.2-2-2-0.9-1.7-2-2-2-1.2-2-2.1-0.7-1.6-1.6-1.6-1.8-0.9-2.1-1.9c-0.3-1.1-1.3-2.1-2.4-2.4-1-0.3-1.9-1.2-1.9-2s-0.9-1.7-2-2-2-1.2-2-2-0.9-1.7-2-2-2-1.2-2-2-0.9-1.7-2-2-2-1.2-2-2-0.9-1.7-2-2-2-1.2-2-2-0.9-1.7-2-2-2-1.2-2-2-0.9-1.7-2-2-2-1.2-2-2.1-0.7-1.6-1.6-1.6-1.8-0.9-2.1-1.9c-0.3-1.1-1.3-2.1-2.4-2.4-1-0.3-1.9-1.2-1.9-2s-0.9-1.7-2-2-2-1.2-2-2-0.9-1.7-2-2-2-1.2-2-2-0.9-1.7-2-2-2-1.2-2-2-0.9-1.7-2-2-2-1.2-2-2-0.9-1.7-2-2-2-1.2-2-2-0.9-1.7-2-2-2-1.2-2-2-0.9-1.7-2-2-2-1.2-2-2-0.9-1.7-2-2-2-1.2-2-2-0.9-1.7-2-2c-2.7-0.7-2.7-6 0-8.7 1.1-1.1 2-2.9 2-4.1s0.8-2.3 2-2.6c1.1-0.3 2-1.2 2-2s0.9-2.6 2-4 2-3.4 2-4.3c0-1 0.9-2 2-2.3 1.2-0.3 2-1.4 2-2.6s0.9-3 2-4.1 2-2.4 2-3c0-0.5 0.9-1.9 2-3s2-2.9 2-4.1 0.8-2.3 2-2.6c1.1-0.3 2-1.2 2-2s0.9-2.6 2-4 2-3.4 2-4.3c0-1 0.9-2 2-2.3 1.2-0.3 2-1.4 2-2.6s0.9-3 2-4.1 2-2.4 2-3c0-0.5 0.9-1.9 2-3s2-2.9 2-4.1 0.8-2.3 2-2.6c1.1-0.3 2-1.2 2-2s0.9-2.6 2-4 2-3.4 2-4.3c0-1 0.9-2 2-2.3 1.2-0.3 2-1.4 2-2.6s0.9-3 2-4.1 2-2.4 2-3c0-0.5 0.9-1.9 2-3s2-2.9 2-4.1 0.8-2.3 2-2.6c1.1-0.3 2-1.2 2-2s0.9-2.6 2-4 2-3.4 2-4.3c0-1 0.9-2 2-2.3 1.2-0.3 2-1.4 2-2.6s0.9-3 2-4.1 2-2.4 2-3c0-0.5 0.9-1.9 2-3s2-2.9 2-4.1 0.8-2.3 2-2.6c1.1-0.3 2-1.3 2-2.2s0.9-2.4 2-3.4c1.1-0.9 2-2.6 2-3.7 0-1 0.9-2.4 2-3s2-1.8 2-2.7 0.9-2.7 2.1-3.9 1.8-2.7 1.4-3.3c-1-1.7-2.2-1.3-2.8 0.9-0.3 1.1-1.2 2-2 2-0.9 0-1.9 0.9-2.2 2s-1.1 2-1.6 2c-1.1 0-6.9 6-6.9 7.1 0 0.5-0.7 0.9-1.5 0.9s-1.5 0.7-1.5 1.5-0.4 1.5-0.9 1.5c-1.1 0-15.1 13.9-15.1 15.1 0 0.5-0.4 0.9-0.9 0.9-1.1 0-20.1 19-20.1 20.1 0 0.5-0.7 0.9-1.5 0.9s-1.5 0.7-1.5 1.5-0.4 1.5-0.9 1.5c-1.1 0-24.1 23-24.1 24.1 0 0.5-0.7 0.9-1.5 0.9s-1.5 0.7-1.5 1.5-0.4 1.5-0.9 1.5c-1.1 0-19.1 17.9-19.1 19 0 0.5-0.9 1.1-1.9 1.5-1.1 0.3-2.3 1.5-2.6 2.6-0.4 1-1.3 1.9-2.1 1.9s-1.4 0.7-1.4 1.5-0.4 1.5-0.9 1.5c-1.2 0-8.1 6.9-8.1 8.1 0 0.5-0.7 0.9-1.5 0.9s-1.5 0.6-1.5 1.4-0.9 1.7-1.9 2.1c-1.1 0.3-2.2 1.4-2.4 2.3-0.4 1.5-0.5 1.5-0.6 0-0.1-1.2 104.6-106.9 136.2-137.5 1.7-1.6 1.8-1.6 2.4 0.5 0.3 1.2 0.9 2.2 1.3 2.2 1.1 0 134.4 133.5 136.5 136.6l1.6 2.5-65.5 65.6c-36.1 36.1-65.6 66-65.6 66.4 0 0.5-0.7 0.9-1.5 0.9s-1.5 0.7-1.5 1.5-0.6 1.5-1.2 1.5c-0.7 0-2.3 0.3-3.6 0.6-1.8 0.5-2.4 0.2-2.9-1.5z"/>
			<path class="st1" d="m462.4 371.9c-47.8-47.9-60.4-61-54.1-55.8 1.5 1.2 1.8 1 2.3-1.8 0.4-1.7 1.2-3.1 1.9-3.1 0.8 0 1.9-1.6 2.5-3.6 0.7-1.9 1.8-3.8 2.6-4.1s1.4-1.3 1.4-2.3 0.6-2 1.4-2.3 1.7-1.9 2.1-3.6 1.5-3.6 2.6-4.1c1-0.6 1.9-1.5 1.9-2.1s0.9-2.2 2-3.6 2-3.4 2-4.3c0-1 0.9-2 2-2.3 1.2-0.3 2-1.4 2-2.6s0.9-3 2-4.1 2-2.6 2-3.3 0.9-2 2-3c1.1-0.9 2-2.6 2-3.8s0.8-2.3 2-2.6c1.1-0.3 2-1.2 2-2s0.9-2.6 2-4 2-3.4 2-4.3c0-1 0.9-2 2-2.3 1.2-0.3 2-1.4 2-2.6s0.9-3 2-4.1 2-2.4 2-3c0-0.5 0.9-1.9 2-3s2-2.9 2-4.1 0.8-2.3 2-2.6c1.1-0.3 2-1.2 2-2s0.9-2.6 2-4 2-3.4 2-4.3c0-1 0.9-2 2-2.3 1.2-0.3 2-1.4 2-2.6s0.9-3 2-4.1 2-2.4 2-3c0-0.5 0.9-1.9 2-3s2-2.9 2-4.1 0.8-2.3 2-2.6c1.1-0.3 2-1.2 2-2s0.9-2.6 2-4 2-3.4 2-4.3c0-1 0.9-2 2-2.3 1.2-0.3 2-1.4 2-2.6s0.9-3 2-4.1 2-2.6 2-3.4 0.6-1.6 1.4-1.9 1.9-2.2 2.6-4.1c0.6-2 1.8-3.6 2.6-3.6s1.4-0.9 1.4-1.9 0.7-2.1 1.5-2.5c0.8-0.3 1.5-1.7 1.5-3.1 0-2.2-0.2-2.4-1.4-1.3-0.8 0.7-30.5 30.3-66 65.8-39 38.9-64.4 65-64.1 65.8 0.3 0.9-0.1 1.2-1.2 1-2.6-0.5-2.8-3.4-0.3-4.1 1.1-0.3 2-1.2 2-2s0.9-1.7 2-2 2-1.2 2-2 0.9-1.7 2-2 2-1.2 2-2.1 0.7-1.6 1.6-1.6 1.8-0.9 2.1-2 1.2-2 2-2 1.7-0.9 2-2 1.2-2 2-2 1.7-0.9 2-2 1.2-2 2-2 1.7-0.9 2-2 1.2-2 2-2 1.7-0.9 2-2 1.2-2 2-2 1.7-0.9 2-2 1.2-2 2-2 1.7-0.9 2-1.9c0.3-1.1 1.3-2.1 2.4-2.4 1-0.3 1.9-1.2 1.9-2s0.9-1.7 2-2 2-1.2 2-2 0.9-1.7 2-2 2-1.2 2-2 0.9-1.7 2-2 2-1.2 2-2 0.9-1.7 2-2 2-1.2 2-2 0.9-1.7 2-2 2-1.2 2-2 0.9-1.7 2-2 2-1.2 2-2 0.9-1.7 2-2 2-1.2 2-2 0.9-1.7 2-2 2-1.2 2-2 0.9-1.7 2-2 2-1.2 2-2 0.9-1.7 2-2 2-1.2 2-2 0.9-1.7 2-2 2-1.2 2-2 0.9-1.7 2-2 2-1.2 2-2 0.9-1.7 2-2 2-1.2 2-2 0.9-1.7 2-2 2-1.2 2-2 0.9-1.7 2-2 2-1.2 2-2 0.9-1.7 2-2 2-1.2 2-2 0.9-1.7 2-2 2-1.2 2-2.1 0.7-1.6 1.6-1.6 1.8-0.9 2.1-2 1.2-2 2-2 1.7-0.9 2-2 1.2-2 2-2 1.7-0.9 2-2 1.2-2 2-2 1.7-0.9 2-2 1.2-2 2-2 1.7-0.9 2-2 1.2-2 2-2 1.7-0.9 2-2c0.4-1.6 1.4-2 4.4-2 3.2 0 3.9 0.3 3.9 2 0 1.3 0.7 2 2 2s2 0.7 2 2 0.7 2 2 2 2 0.7 2 2 0.7 2 2 2 2 0.7 2 2 0.7 2 2 2 2 0.7 2 2 0.7 2 2 2 2 0.7 2 2 0.7 2 2 2 2 0.7 2 2 0.7 2 2 2 2 0.7 2 2 0.7 2 2 2 2 0.7 2 2 0.7 2 2 2 2 0.7 2 2 0.7 2 2 2 2 0.7 2 2 0.7 2 2 2 2 0.7 2 2 0.7 2 2 2 2 0.7 2 2 0.7 2 2 2 2 0.7 2 2 0.7 2 2 2 2 0.7 2 2 0.7 2 2 2 2 0.7 2 2 0.7 2 2 2 2 0.7 2 2 0.7 2 2 2 2 0.7 2 2 0.7 2 2 2 2 0.7 2 2 0.7 2 2 2 2 0.7 2 2 0.7 2 2 2 2 0.7 2 2 0.7 2 2 2 2 0.7 2 2 0.7 2 2 2 2 0.7 2 2 0.7 2 2 2 2 0.7 2 2 0.7 2 2 2 2 0.7 2 2 0.7 2 2 2 2 0.7 2 2 0.7 2 2 2 2 0.7 2 2 0.7 2 2 2 2 0.7 2 2 0.7 2 2 2 2 0.7 2 2 0.7 2 2 2 2 0.7 2 2 0.7 2 2 2 2 0.7 2 2 0.7 2 2 2 2 0.7 2 2 0.7 2 2 2 2 0.7 2 2 0.7 2 2 2c1.2 0 2 0.7 2 1.6s0.9 2.3 2 3.2c2.2 1.9 1.8 7.2-0.6 7.2-0.8 0-1.4 0.7-1.4 1.5s-0.4 1.5-0.9 1.5-30.6 29.7-66.9 66c-36.2 36.3-66.1 66-66.3 66-0.2-0.1-24.7-24.5-54.5-54.3z"/>
			<path class="st2" d="m234.7 708.6c-1-1.1 0.3-2.4 2.4-2.4 1 0 1.9-0.7 1.9-1.5s0.7-1.5 1.5-1.5 1.5-0.4 1.5-0.9c0-0.4 29.5-30.4 65.6-66.4 36-36.1 65.3-66.1 65-66.6-0.7-1 1.6-2.1 4.4-2.1 1 0 2-0.9 2.3-2s1.2-2 2.1-2 1.6-0.8 1.6-2c0-1.3 0.7-2 2-2s2-0.7 2-2 0.7-2 1.9-2c1 0 2.1-0.9 2.4-2s1.2-2 2.1-2 1.6-0.8 1.6-2c0-1.3 0.7-2 1.9-2 1 0 2.1-0.9 2.4-2s1.2-2 2.1-2 1.6-0.8 1.6-2c0-1.3 0.7-2 2-2s2-0.7 2-2 0.7-2 1.9-2c1 0 2.1-0.9 2.4-2s1.2-2 2.1-2 1.6-0.8 1.6-2c0-1.3 0.7-2 1.9-2 1 0 2.1-0.9 2.4-2s1.2-2 2.1-2 1.6-0.8 1.6-2c0-1.3 0.7-2 1.9-2 1 0 2.1-0.9 2.4-2s1.2-2 2-2 1.7-0.9 2-2 1.2-2 2.1-2 1.6-0.8 1.6-2c0-1.3 0.7-2 1.9-2 1 0 2.1-0.9 2.4-2s1.2-2 2.1-2 1.6-0.8 1.6-2c0-1.3 0.7-2 2-2s2-0.7 2-2 0.7-2 1.9-2c1 0 2.1-0.9 2.4-2s1.2-2 2-2 1.7-0.9 2-2 1.2-2 2-2 1.7-0.9 2-2 1.2-2 2.1-2 1.6-0.8 1.6-2c0-1.3 0.7-2 2-2s2-0.7 2-2 0.7-2 1.9-2c1 0 2.1-0.9 2.4-2s1.2-2 2.1-2 1.6-0.8 1.6-2c0-1.3 0.7-2 1.9-2 1 0 2.1-0.9 2.4-2s1.2-2 2-2 1.7-0.9 2-2 1.2-2 2.1-2 1.6-0.8 1.6-2c0-1.3 0.7-2 2-2 1.2 0 2-0.7 2-1.6s0.9-1.8 2-2.1 2-1.4 2-2.4c0-1.2 0.7-1.9 1.9-1.9 1 0 2.1-0.9 2.4-2s1.2-2 2-2 1.7-0.9 2-2 1.2-2 2.1-2 1.6-0.8 1.6-2c0-1.3 0.7-2 1.9-2 1 0 2.1-0.9 2.4-2s1.2-2 2.1-2c1.1 0 1.6-0.9 1.6-3.1 0-1.8 0.4-2.8 1-2.4s30.8-29.1 67.2-65.4c36.3-36.4 66.4-66.1 66.9-66.1s0.9-0.7 0.9-1.5 0.7-1.5 1.5-1.5 1.5-0.9 1.5-2 0.5-2 1-2c1.1 0 1.5 275.4 0.4 280.9-0.4 1.8-1.3 3.1-2.1 3.1s-1.7 0.9-2 2-1.2 2-2 2-1.7 0.9-2 2-1.2 2-2 2-1.7 0.9-2 2-1.2 2-2 2-1.7 0.9-2 2-1.2 2-2 2-1.7 0.9-2 2-1.2 2-2 2-1.7 0.9-2 2-1.2 2-2 2-1.7 0.9-2 2-1.2 2-2 2-1.7 0.9-2 2-1.2 2-2 2-1.7 0.9-2 2-1.2 2-2 2-1.7 0.9-2 2-1.2 2-2 2-1.7 0.9-2 2-1.2 2-2 2-1.7 0.9-2 2-1.2 2-2 2-1.7 0.9-2 2-1.2 2-2 2-1.7 0.9-2 1.9c-0.3 1.1-1.3 2.1-2.4 2.4-1 0.3-1.9 1.2-1.9 2s-0.9 1.7-2 2-2 1.2-2 2-0.9 1.7-2 2-2 1.2-2 2-0.9 1.7-2 2-2 1.2-2 2-0.9 1.7-2 2-2 1.2-2 2-0.9 1.7-2 2-2 1.2-2 2-0.9 1.7-2 2-2 1.2-2 2-0.9 1.7-2 2-2 1.2-2 2-0.9 1.7-2 2-2 1.2-2 2-0.9 1.7-2 2-2 1.2-2 2-0.9 1.7-2 2-2 1.2-2 2-0.9 1.7-2 2-2 1.2-2 2-0.9 1.7-2 2-2 1.2-2 2-0.9 1.7-2 2-2 1.2-2 2-0.9 1.7-2 2-2 1.2-2 2-0.9 1.7-2 2-2 1.2-2 2-0.9 1.7-2 2-2 1.2-2 2-0.9 1.7-2 2-2 1.2-2 2-0.9 1.7-2 2-2 1.2-2 2-0.9 1.7-2 2-2 1.2-2 2.1-0.8 1.6-2 1.6c-1.1 0-2 0.5-2 1 0 1.1-279.2 1.5-280.3 0.4z"/>
			<path class="st2" d="m92 427.8c0-123.2 0.2-139.7 1.5-140.2 0.8-0.4 1.5-1.5 1.5-2.5 0-1.2 0.7-1.9 2-1.9s2-0.7 2-2 0.7-2 2-2 2-0.7 2-2 0.7-2 2-2 2-0.7 2-2 0.7-2 2-2 2-0.7 2-2 0.7-2 2-2 2-0.7 2-2 0.7-2 2-2 2-0.7 2-2 0.7-2 2-2 2-0.7 2-2 0.7-2 2-2 2-0.7 2-2 0.7-2 2-2 2-0.7 2-2 0.7-2 2-2 2-0.7 2-2 0.7-2 2-2 2-0.7 2-2 0.7-2 2-2 2-0.7 2-2 0.7-2 2-2 2-0.7 2-2 0.7-2 2-2 2-0.7 2-2 0.7-2 2-2 2-0.7 2-2 0.7-2 2-2 2-0.7 2-2 0.7-2 2-2 2-0.7 2-2 0.7-2 2-2 2-0.7 2-2 0.7-2 2-2 2-0.7 2-2 0.7-2 2-2 2-0.7 2-2 0.7-2 2-2 2-0.7 2-2 0.7-2 2-2 2-0.7 2-2 0.7-2 2-2 2-0.7 2-2 0.7-2 2-2 2-0.7 2-2 0.7-2 2-2 2-0.7 2-2 0.7-2 2-2 2-0.7 2-2 0.7-2 2-2 2-0.7 2-2 0.7-2 2-2 2-0.7 2-2 0.7-2 2-2 2-0.7 2-2 0.7-2 2-2 2-0.7 2-2 0.7-2 2-2 2-0.7 2-2 0.7-2 2-2 2-0.7 2-2 0.7-2 2-2 2-0.7 2-2 0.7-2 2-2 2-0.7 2-2 0.7-2 2-2 2-0.7 2-2 0.7-2 2-2 2-0.7 2-2 0.7-2 2-2 2-0.7 2-2 0.7-2 2-2 2-0.7 2-2 0.7-2 2-2 2-0.7 2-2 0.7-2 2-2 2-0.7 2-2 0.7-2 2-2 2-0.7 2-2 0.7-2 2-2 2-0.7 2-2 0.7-2 2-2 2-0.7 2-2 0.7-2 2-2 2-0.7 2-2 0.7-2 2-2 2-0.7 2-2 0.7-2 2-2 2-0.7 2-2 0.7-2 2-2 2-0.7 2-2 0.7-2 2-2 2-0.7 2-2 0.7-2 2-2 2-0.7 2-2 0.7-2 2-2 2-0.7 2-2 0.7-2 2-2 2-0.7 2-2 0.7-2 2-2 2-0.7 2-2 0.7-2 2-2 2-0.7 2-2 0.7-2 2-2 2-0.7 2-2 0.7-2 2-2 2-0.7 2-2 0.7-2 2-2 2-0.7 2-2 0.7-2 2-2 2-0.7 2-2 0.7-2 2-2 2-0.7 2-2 0.7-2 2-2 2-0.7 2-2 0.7-2 2-2 2-0.7 2-2 0.7-2 2-2 2-0.7 2-2 0.7-2 2-2 2-0.7 2-2 0.7-2 2-2 2-0.7 2-2 0.7-2 2-2 2-0.7 2-2 0.7-2 2-2 2-0.7 2-2 0.7-2 2-2 2-0.7 2-2 0.7-2 2-2 2-0.7 2-2 0.7-2 2-2 2-0.7 2-2 0.7-2 2-2 2-0.7 2-2c0-2.9 6.9-2.9 7.7 0 0.3 1.1 1.2 2 2 2s1.7 0.9 2 2 1.2 2 2 2 1.7 0.9 2 2 1.2 2 2 2 1.7 0.9 2 2 1.2 2 2 2 1.7 0.9 2 2 1.2 2 2 2 1.7 0.9 2 2 1.2 2 2 2 1.7 0.9 2 2 1.2 2 2 2 1.7 0.9 2 2 1.2 2 2 2 1.7 0.9 2 2 1.2 2 2 2 1.7 0.9 2 2 1.2 2 2 2 1.7 0.9 2 2 1.2 2 2 2 1.7 0.9 2 1.9c0.3 1.1 1.3 2.1 2.4 2.4 1 0.3 1.9 1.2 1.9 2s0.9 1.7 2 2 2 1.2 2 2 0.9 1.7 2 2 2 1.2 2 2 0.9 1.7 2 2 2 1.2 2 2 0.9 1.7 2 2 2 1.2 2 2 0.9 1.7 2 2 2 1.2 2 2 0.9 1.7 2 2 2 1.2 2 2 0.9 1.7 2 2 2 1.2 2 2 0.9 1.7 2 2 2 1.2 2 2 0.9 1.7 2 2 2 1.2 2 2 0.9 1.7 2 2 2 1.2 2 2 0.9 1.7 2 2 2 1.2 2 2 0.9 1.7 2 2 2 1.2 2 2 0.9 1.7 2 2 2 1.2 2 2 0.9 1.7 2 2 2 1.2 2 2 0.9 1.7 2 2 2 1.2 2 2 0.9 1.7 2 2 2 1.2 2 2 0.9 1.7 2 2 2 1.2 2 2 0.9 1.7 2 2 2 1.2 2 2 0.9 1.7 2 2 2 1.2 2 2 0.9 1.7 2 2 2 1.2 2 2 0.9 1.7 2 2 2 1.2 2 2.1 0.8 1.6 1.9 1.6c1.9 0 3.5 2.3 2.4 3.4-0.4 0.3-1.4 0.6-2.4 0.6-0.9 0-1.9 0.9-2.2 2s-1.2 2-2 2-1.7 0.9-2 2-1.2 2-2 2-1.7 0.9-2 2-1.2 2-2 2-1.7 0.9-2 2-1.2 2-2 2-1.7 0.9-2 2-1.2 2-2 2-1.7 0.9-2 2-1.2 2-2 2-1.7 0.9-2 2-1.2 2-2 2-1.7 0.9-2 2-1.2 2-2 2-1.7 0.9-2 2-1.2 2-2 2-1.7 0.9-2 2-1.2 2-2 2-1.7 0.9-2 2-1.2 2-2 2-1.7 0.9-2 2-1.2 2-2 2-1.7 0.9-2 2-1.2 2-2 2-1.7 0.9-2 2-1.2 2-2.1 2-1.6 0.7-1.6 1.6-0.9 1.8-1.9 2.1c-1.1 0.3-2.1 1.3-2.4 2.4-0.3 1-1.2 1.9-2 1.9s-1.7 0.9-2 2-1.2 2-2 2-1.7 0.9-2 2-1.2 2-2 2-1.7 0.9-2 2-1.2 2-2 2-1.7 0.9-2 2-1.2 2-2 2-1.7 0.9-2 2-1.2 2-2 2-1.7 0.9-2 2-1.2 2-2 2-1.7 0.9-2 2-1.2 2-2 2-1.7 0.9-2 2-1.2 2-2 2-1.7 0.9-2 2-1.2 2-2 2-1.7 0.9-2 2-1.2 2-2 2-1.7 0.9-2 2-1.2 2-2 2-1.7 0.9-2 2-1.2 2-2 2-1.7 0.9-2 2-1.2 2-2 2-1.7 0.9-2 2-1.2 2-2 2-1.7 0.9-2 2-1.2 2-2 2-1.7 0.9-2 2-1.2 2-2 2-1.7 0.9-2 2-1.2 2-2 2-1.7 0.9-2 2-1.3 2-2.2 2c-1.2 0-1.6 0.6-1.2 2 0.4 1.6 0 2-1.8 2-1.4 0-2.5 0.7-2.8 2-0.3 1.1-1.2 2-2 2s-1.7 0.9-2 2-1.2 2-2 2-1.7 0.9-2 2-1.2 2-2 2-1.7 0.9-2 2-1.2 2-2 2-1.7 0.9-2 2-1.2 2-2 2-1.7 0.9-2 2-1.2 2-2 2-1.7 0.9-2 2-1.2 2-2 2-1.7 0.9-2 2-1.2 2-2 2-1.7 0.9-2 2-1.2 2-2 2-1.7 0.9-2 2-1.2 2-2 2-1.7 0.9-2 2-1.2 2-2 2-1.7 0.9-2 2-1.2 2-2 2-1.7 0.9-2 2-1.2 2-2 2-1.7 0.9-2 2-1.2 2-2 2-1.7 0.9-2 2-1.2 2-2 2-1.7 0.9-2 2-1.2 2-2 2-1.7 0.9-2 2-1.2 2-2 2-1.7 0.9-2 2-1.2 2-2 2-1.7 0.9-2 2-1.2 2-2 2-1.7 0.9-2 2-1.2 2-2 2-1.7 0.9-2 2-1.2 2-2 2-1.7 0.9-2 2-1.2 2-2 2-1.7 0.9-2 2-1.2 2-2 2-1.7 0.9-2 2-1.2 2-2.1 2-1.6 0.7-1.6 1.6-0.9 1.8-1.9 2.1c-1.1 0.3-2.1 1.3-2.4 2.4-0.3 1-1.2 1.9-2 1.9s-1.7 0.9-2 2-1.2 2-2 2-1.7 0.9-2 2-1.2 2-2 2-1.7 0.9-2 2-1.2 2-2 2-1.7 0.9-2 2-1.2 2-2 2-1.7 0.9-2 2-1.2 2-2 2-1.7 0.9-2 2-1.2 2-2 2-1.7 0.9-2 2-1.2 2-2 2-1.7 0.9-2 2-1.2 2-2 2c-0.9 0-1.7 1-1.9 2.3-0.2 1.2-0.8 2.2-1.3 2.2-1.6 0 0.5-2-73 71.4l-68.5 68.3v-139.6z"/>
	<path class="st3" d="M41.5,938.5h91v33.1H3.3v-183h38.2V938.5z"/>
	<path class="st3" d="m279.8 903.7c0 22.2-6.4 39.6-19.1 52.4-12.7 12.7-29.4 19.1-49.9 19.1-20.2 0-36.7-6.3-49.6-19s-19.4-30.2-19.4-52.5c0-22.5 6.5-40 19.4-52.5s29.4-18.8 49.6-18.8c20.7 0 37.3 6.4 50 19.2 12.7 12.9 19 30.2 19 52.1zm-36.7 0.1c0-13-2.7-23.1-8-30.4-5.4-7.3-13.4-11-24.2-11-10 0-17.9 3.4-23.7 10.3-5.7 6.9-8.6 17.2-8.6 31.1 0 13.6 2.8 23.9 8.3 30.9 5.6 7 13.5 10.5 23.9 10.5 10.7 0 18.8-3.6 24.2-10.8 5.4-7.3 8.1-17.5 8.1-30.6z"/>
	<path class="st3" d="m306.6 835.9h34.2v23.5h0.5c4.2-8.9 9.2-15.6 15.1-20.2s13.3-6.8 22.2-6.8c2.3 0 4.6 0.2 6.8 0.5v36.2c-1.7-0.3-5.1-0.5-10.2-0.5-11.1 0-19.4 2.7-24.8 8-5.4 5.4-8.1 13.5-8.1 24.3v70.6h-35.7v-135.6z"/>
	<path class="st3" d="m524.5 931.9c-4.2 14-11.6 24.8-22.3 32.2s-23.2 11.1-37.4 11.1c-22.3 0-39.4-6.2-51.2-18.5s-17.7-29.4-17.7-51.2c0-21.9 5.5-39.6 16.6-53s27.6-20.1 49.6-20.1c19.8 0 35.3 6.3 46.7 18.8s17.1 31.2 17.1 55.9v6.4h-94.3c0.8 11 4.1 19.3 9.7 24.8s13.3 8.3 23 8.3c5.8 0 10.8-1.3 15.1-4 4.2-2.7 7-6.2 8.2-10.6h36.9zm-35.3-41.6c-0.7-8.6-3.6-15.6-8.5-20.8s-11.2-7.8-19-7.8c-16.9 0-26.6 9.5-29 28.6h56.5z"/>
	<path class="st3" d="m745.2 971.6h-35.7v-83c0-7.9-1.6-14.2-4.7-19-3.2-4.8-8.3-7.2-15.3-7.2-7.1 0-12.7 2.2-17.1 6.6-4.3 4.4-6.5 11-6.5 19.9v82.7h-35.7v-84.7c0-8.5-1.7-14.7-5.1-18.6s-8.8-5.9-16.3-5.9-13 2.2-16.7 6.7c-3.7 4.4-5.5 11.1-5.5 19.9v82.7h-35.7v-135.8h34.2v19.9h0.5c8-15.6 21.1-23.4 39.3-23.4 16.6 0 28.9 7.2 36.9 21.7 9-14.4 21.1-21.7 36.2-21.7 13.9 0 25.3 4 34.1 11.9s13.1 19.1 13.1 33.4v93.9z"/>
	<path class="st3" d="m128.9 1099v-72h6.8v72h-6.8z"/>
	<path class="st3" d="m212 1099v-72h26.3c4.7 0 8.5 0.5 11.6 1.6 3 1.1 5.4 2.5 7.2 4.4s3 4 3.7 6.5c0.7 2.4 1 5 1 7.7 0 4-0.8 7.3-2.4 9.9s-3.8 4.7-6.4 6.2-5.5 2.5-8.8 3.1-6.6 0.9-10 0.9h-15.4v31.8h-6.8zm22.4-37.6c3.2 0 6.1-0.2 8.6-0.6s4.7-1.1 6.5-2.2 3.1-2.6 4.1-4.5 1.5-4.4 1.5-7.4c0-4.5-1.5-8-4.5-10.3s-7.7-3.5-14.1-3.5h-17.6v28.6h15.5z"/>
	<path class="st3" d="m334.2 1077.5c0.3 3.2 1 5.9 2.1 8.2 1.2 2.2 2.7 4 4.5 5.4s4 2.4 6.4 3.1c2.4 0.6 5 0.9 7.7 0.9 3.2 0 6-0.4 8.3-1.2s4.2-1.9 5.7-3.2c1.5-1.4 2.6-3 3.2-4.8 0.7-1.8 1.1-3.7 1.1-5.7 0-2.8-0.6-5.1-1.9-6.8s-2.9-3.2-5-4.2c-2-1.1-4.4-2-7-2.7s-5.3-1.3-8.1-2c-2.8-0.6-5.5-1.4-8.1-2.2-2.6-0.9-5-2-7-3.5s-3.7-3.3-4.9-5.6c-1.3-2.3-1.9-5.2-1.9-8.8 0-2.5 0.5-4.9 1.5-7.2s2.6-4.4 4.6-6.2 4.6-3.2 7.6-4.3c3.1-1.1 6.6-1.6 10.6-1.6 4.1 0 7.6 0.6 10.6 1.7s5.5 2.7 7.5 4.7 3.5 4.2 4.5 6.8 1.5 5.4 1.5 8.3h-6.5c0-2.7-0.5-5.1-1.4-7.1-1-2-2.3-3.6-4-4.9s-3.6-2.2-5.7-2.8-4.3-0.9-6.6-0.9c-3.5 0-6.4 0.5-8.8 1.5s-4.2 2.2-5.7 3.8c-1.4 1.5-2.4 3.2-2.9 5.1s-0.6 3.7-0.3 5.6c0.4 2.3 1.3 4.2 2.8 5.6s3.3 2.5 5.4 3.5c2.1 0.9 4.5 1.6 7.1 2.2s5.2 1.2 7.9 1.8 5.2 1.4 7.8 2.2c2.5 0.9 4.7 2 6.6 3.5s3.5 3.4 4.7 5.7 1.8 5.2 1.8 8.7c0 6.7-2.3 11.8-6.9 15.5s-11.1 5.5-19.4 5.5c-3.7 0-7.2-0.5-10.4-1.5s-6-2.4-8.3-4.4-4.2-4.4-5.5-7.3-2-6.3-2-10.2h6.8z"/>
	<path class="st3" d="m450.6 1027h6.8v42.9c0 8.9 1.7 15.4 5 19.3s8.7 5.9 16.1 5.9c3.9 0 7.2-0.5 9.9-1.5s4.9-2.6 6.5-4.7c1.7-2.1 2.9-4.7 3.6-7.8s1.1-6.8 1.1-11.1v-43h6.8v44.9c0 9.4-2.3 16.6-7 21.5-4.6 5-11.6 7.5-21 7.5s-16.4-2.5-21-7.6-6.9-12.2-6.9-21.4v-44.9z"/>
	<path class="st3" d="m580.4 1099v-72h10.4l23.6 63.5h0.2l23.2-63.5h10.3v72h-6.8v-64.2h-0.2l-23.6 64.2h-6.4l-23.7-64.2h-0.2v64.2h-6.8z"/>
</svg>
